# xmcd CD database file
#
# Track frame offsets:
#	150
#	13002
#	21975
#	36428
#
# Disc length: 796 seconds
#
# Revision: 0
# Processed by: cddbd v1.5.1PL0 Copyright (c) Steve Scherf et al.
# Submitted via: CDex 1.60beta1
#
DISCID=2c031a04
DTITLE=Betheny Dunlap - Bethany Dunlap with Neopolitan
DYEAR=1900
DGENRE=Jazz
TTITLE0=Almost Blue
TTITLE1=Honeysuckle Rose
TTITLE2=Shoot the Moon
TTITLE3=Won't Apologize
EXTD=
EXTT0=
EXTT1=
EXTT2=
EXTT3=
PLAYORDER=
